<svg version="1.2" xmlns="http://www.w3.org/2000/svg" viewBox="0 0 900 250" width="714" height="198">
	<title>FlexPC</title>
	<style>
		.s0 { paint-order:stroke fill markers;stroke: #000000;stroke-width: 10;stroke-linejoin: round;;fill: #29b6f6 } 
		.s1 { paint-order:stroke fill markers;stroke: #000000;stroke-width: 10;stroke-linejoin: round;;fill: #ffffff } 
	</style>
	<path id="FlexPC" class="s0" aria-label="FlexPC"  d="m171.8 15l-3.8 20.7h-95.7l-14.3 78.9h81.9l-3.8 20.7h-81.9l-18.5 101.7h-23.1l40.4-222zm383.6 222l40-219.4q28.2-5 49.9-5 41.1 0 58.1 18.6 17.1 18.6 10 57.5-13.8 75.5-98.5 75.5-12.5 0-22.9-1l-13.4 73.8zm63.7-92.6q31.4 0 48.7-13.3 17.3-13.5 22.4-41.9 5.4-29.6-6.1-43.1-11.4-13.7-41-13.7-13.9 0-27.8 2.1l-19.8 108.6q9.8 1.3 23.6 1.3zm179.2 95.4q-28.2 0-45.6-10.9-17.2-11.1-23.1-36.2-5.8-25 1.7-66.3 11-60.3 38.7-87.3 27.9-27 72.1-27 20.7 0 39 5.7l-3.7 20.6q-9.3-3.2-18.7-4.5-9.2-1.3-19.7-1.3-22.3 0-38.5 8.6-16 8.8-27.2 29.3-11.2 20.6-17.6 55.4-6.4 35.5-2.7 56 3.8 20.6 16.5 29.2 12.7 8.3 34.6 8.3 9.7 0 19.7-1.8 9.9-1.9 22-5.8l-3.7 20.5q-9.8 3.5-21.1 5.6-11.3 1.9-22.7 1.9z"/>
	<path id="FlexPC" class="s1" aria-label="FlexPC"  d="m251.7 237h-102.3l32.5-178.5h22.9l-28.8 158.7h79.3zm60.3-81.8l-11.4 62.7h83.4l-3.4 19.1h-106.1l32.5-178.5h104.8l-3.4 19.1h-82.2l-10.7 58.6h70l-3.4 19zm249.3-96.7l-72.4 87.2 42.8 91.3h-25.5l-34-73.5-60.8 73.5h-25.6l76.3-91.3-41-87.2h25.6l32.3 69.2 57.3-69.2z"/>
</svg>