<svg xmlns="http://www.w3.org/2000/svg" viewBox="0 0 356 360">
	<path
		d="M43.4 303.4c0 3.8-2.3 6.3-7.1 6.3h-15v-22h14.4c4.3 0 6.2 2.2 6.2 5.2 0 2.6-1.5 4.4-3.4 5 2.8.4 4.9 2.5 4.9 5.5zm-8-13H24.1v6.9H35c2.1 0 4-1.3 4-3.8 0-2.2-1.3-3.1-3.7-3.1zm5.1 12.6c0-2.3-1.8-3.7-4-3.7H24.2v7.7h11.7c3.4 0 4.6-1.8 4.6-4zm36.3 4v2.7H56v-22h20.6v2.7H58.9v6.8h14.6v2.3H58.9v7.5h17.9zm23-5.8v8.5H97v-8.5l-11-13.4h3.4l8.9 11 8.8-11h3.4l-10.8 13.4zm19.1-1.8V298c0-7.9 5.2-10.7 12.7-10.7 7.5 0 13 2.8 13 10.7v1.4c0 7.9-5.5 10.8-13 10.8s-12.7-3-12.7-10.8zm22.7 0V298c0-5.7-3.9-8-10-8-6 0-9.8 2.3-9.8 8v1.4c0 5.8 3.8 8.1 9.8 8.1 6 0 10-2.3 10-8.1zm37.2-11.6v21.9h-2.9l-15.8-17.9v17.9h-2.8v-22h3l15.6 18v-18h2.9zm37.9 10.2v1.3c0 7.8-5.2 10.4-12.4 10.4H193v-22h11.2c7.2 0 12.4 2.8 12.4 10.3zm-3 0c0-5.3-3.3-7.6-9.4-7.6h-8.4V307h8.4c6 0 9.5-2 9.5-7.7V298zm50.8-7.6h-9.7v19.3h-3v-19.3h-9.7v-2.6h22.4v2.6zm34.4-2.6v21.9h-3v-10.1h-16.8v10h-2.8v-21.8h2.8v9.2H296v-9.2h2.9zm34.9 19.2v2.7h-20.7v-22h20.6v2.7H316v6.8h14.5v2.3H316v7.5h17.8zM24 340.2v7.3h13.9v2.4h-14v9.6H21v-22h20v2.7H24zm41.5 11.4h-9.8v7.9H53v-22h13.3c5.1 0 8 1.9 8 6.8 0 3.7-2 6.3-5.6 7l6 8.2h-3.3l-5.8-8zm-9.8-2.6H66c3.1 0 5.3-1.5 5.3-4.7 0-3.3-2.2-4.1-5.3-4.1H55.7v8.8zm47.9 6.2H89l-2 4.3h-3.2l10.7-22.2H98l10.7 22.2h-3.2l-2-4.3zm-1-2.3l-6.3-13-6 13h12.2zm46.3-15.3v21.9H146v-17.2L135.7 358h-2.1l-10.2-15.6v17h-2.8v-21.8h3l11 16.9 11.3-17h3zm35 19.3v2.6h-20.7v-22h20.6v2.7H166v6.8h14.5v2.3H166v7.6h17.8zm47-19.3l-8.3 22h-3l-7.1-18.6-7 18.6h-3l-8.2-22h3.3L204 356l6.8-18.5h3.4L221 356l6.6-18.5h3.3zm10 11.6v-1.4c0-7.8 5.2-10.7 12.7-10.7 7.6 0 13 2.9 13 10.7v1.4c0 7.9-5.4 10.8-13 10.8-7.5 0-12.7-3-12.7-10.8zm22.8 0v-1.4c0-5.7-4-8-10-8s-9.9 2.3-9.9 8v1.4c0 5.8 3.8 8.2 9.8 8.2 6.1 0 10-2.4 10-8.2zm28.3 2.4h-9.8v7.9h-2.8v-22h13.2c5.2 0 8 1.9 8 6.8 0 3.7-2 6.3-5.6 7l6 8.2h-3.3l-5.8-8zm-9.8-2.6h10.2c3 0 5.2-1.5 5.2-4.7 0-3.3-2.1-4.1-5.2-4.1h-10.2v8.8zm40.3-1.5l-6.8 5.6v6.4h-2.9v-22h2.9v12.3l15.2-12.2h3.7l-9.9 8.1 10.3 13.8h-3.6l-8.9-12z" />
</svg>